<svg id="Layer_1" data-name="Layer 1" xmlns="http://www.w3.org/2000/svg" viewBox="0 0 1050.3 98.6"><defs><style>.cls-1{fill:#fff;}.cls-1,.cls-2,.cls-3{stroke:#8e8f8e;stroke-miterlimit:10;stroke-width:3.07px;}.cls-2{fill:none;}.cls-3{fill:#8e8f8e;}</style></defs><title>typoo</title><g id="english"><path id="e" class="cls-1" d="M38.9,324.7s-5.5-4.9-5.5-17.3c0-10.2,7.1-17.3,11-17.3H71.9v17.3h-22c-7,0-7,8.7,0,8.7H66.4v17.3H49.9c-7,0-6.8,8.6,0,8.6h22v17.3H44.4c-3.9,0-11-6.9-11-17.3C33.4,329.7,38.9,324.7,38.9,324.7Z" transform="translate(-31.8 -288.2)"/><g id="n"><polyline class="cls-1" points="45.6 27.9 45.6 2 56.7 2 56.7 4.7"/><path class="cls-1" d="M77.4,359.3H88.5V324.7c0-22.2,16.5-22.3,16.5,0v34.6h11V316.1c0-33.8-38.6-33.8-38.6,0Z" transform="translate(-31.8 -288.2)"/></g><g id="g"><path class="cls-1" d="M122.1,341.1c1.2,9,4.4,18.2,10.5,18.2h11c7,0,7,8.6,0,8.6H121.5v17.3h27.6c11.1,0,11-15.3,11-17.3v-8.6a29.9,29.9,0,0,0-2.2-10.7c.5-1.7.9-3.4,1.3-5.2m0,0a58.9,58.9,0,0,0,.9-10V316.1c0-10.6-2-26-11-26H132.6c-8.5,0-11.1,14.7-11.1,26v17.3a53,53,0,0,0,.6,7.7m10.5-7.7V316.1c0-11.1,16.5-10.4,16.5,0v17.3C149.1,345.2,132.6,344.5,132.6,333.4Z" transform="translate(-31.8 -288.2)"/><path class="cls-2" d="M149.1,385.2c11.1,0,11-15.3,11-17.3v-8.6s-.1-17.3-11-17.3h-8.5" transform="translate(-31.8 -288.2)"/></g><rect id="l" class="cls-1" x="133.8" y="2" width="11" height="69.15"/><g id="i"><rect class="cls-1" x="150.3" y="19.3" width="11" height="51.87"/><ellipse class="cls-3" cx="155.9" cy="10.7" rx="5.2" ry="8.1"/></g><path id="s" class="cls-1" d="M198.7,337.7c0,.2,0,21.6,11,21.6h16.6c14.2,0,13.9-43.2,0-43.2H215.2c-6.6,0-7-8.7,0-8.7h5.2c5.7,0,5.9,4.4,5.9,4.4h11s-.3-21.7-11-21.6H209.7c-14.5,0-14,43.3,0,43.3h11c7.1,0,7,8.6,0,8.6h-5.2c-5.9,0-5.8-4.3-5.8-4.3Z" transform="translate(-31.8 -288.2)"/><g id="h"><polyline class="cls-1" points="222 31.1 222 2 211 2 211 53.8"/><path class="cls-1" d="M253.8,359.3h-11V342c0-33.3,38.6-33.8,38.6,0v17.3h-11V342c0-10.6-16.6-10.8-16.6,0Z" transform="translate(-31.8 -288.2)"/></g></g><g id="academy"><g id="a"><path class="cls-1" d="M777.4,316.1v26h0v17.2h11.1V342H805v17.3h11V316.1C816,282.3,777.4,282.4,777.4,316.1Zm11,8.6c0-21.9,16.6-22.5,16.6,0Z" transform="translate(-31.8 -288.2)"/><path id="A-2" data-name="A" class="cls-2" d="M777.4,342.1c0-10.9,5.4-17.2,10.8-17.4h.3" transform="translate(-31.8 -288.2)"/></g><path id="c" class="cls-1" d="M849.1,316.1h11c.1-5.5-3-26-11.1-26H832.5c-8.5,0-11,21-11,26v17.3c0,6,2.7,25.9,11,25.9h16.6c8,0,11-25.9,11-25.9h-11c0,10.8-16.6,10.5-16.6,0,0-5,.1-13,.1-17.3C832.5,305.3,849.1,305.5,849.1,316.1Z" transform="translate(-31.8 -288.2)"/><path id="a-3" data-name="a" class="cls-1" d="M893.1,333.4c0,10.8-16.5,10.5-16.5,0V316.1c0-10.8,16.5-10.6,16.5,0,0,2.6.1,39.1.1,43.2h11V316.1c.1-5.5-3-26-11.1-26H876.6c-8.6,0-11,21-11,26v17.3c0,6,2.6,25.9,11,25.9h16.6" transform="translate(-31.8 -288.2)"/><path id="e-2" data-name="e" class="cls-1" d="M1017.4,298.9s1.2-8.8,9.3-8.8c6.5,0,9.8,11.2,9.8,17.3v51.9h-11V316c0-10.9-8.2-7.8-8.2,3.3,0-10.9-8.3-13.9-8.3-3.3s-.1,43.3-.1,43.3h-11V307.4c0-6.1,3.7-17.2,10.3-17.2S1017.4,298.9,1017.4,298.9Z" transform="translate(-31.8 -288.2)"/><g id="d"><polyline class="cls-1" points="916.5 45.2 916.5 2 905.4 2 905.4 27.9"/><path id="a-4" data-name="a" class="cls-1" d="M936.9,337.6c-.7,3.7-2.5,4.4-5.2,4.4h-5.5c-7,0-6.8-8.6,0-8.6h5.5c3.6,0,5.6,1.3,5.6,8.7-.1,2.5,0,13.1,0,17.2h11V333.4c0-5.5-3-17.3-11.1-17.3H920.7c-14.2,0-14.5,43.2,0,43.2h16.6" transform="translate(-31.8 -288.2)"/></g><path id="e-3" data-name="e" class="cls-1" d="M981.4,316.1H964.8v17.3h27.6V316.1c0-5.9-3.5-26-13.1-26H967.4c-10.9,0-13.6,20.5-13.6,26v17.3c0,6,2.6,25.9,11,25.9h27.6V342H973.5a8.5,8.5,0,0,1-8.7-8.6V316.1C964.8,305.3,981.4,305.5,981.4,316.1Z" transform="translate(-31.8 -288.2)"/><g id="y"><path class="cls-1" d="M1061.1,359.3h2.9c7,0,7.1,8.6,0,8.6h-22v17.3h27.5c11.1,0,11.1-15.3,11.1-17.3v-8.6s-.1-7-2.9-12" transform="translate(-31.8 -288.2)"/><path class="cls-1" d="M1080.6,290.2h-11.1v34.6c0,22.2-16.5,22.3-16.5-.1V290.1h-11s-.1,33.4,0,43.2c0,34.4,38.5,34.9,38.5.1C1080.5,322.6,1080.6,290.2,1080.6,290.2Z" transform="translate(-31.8 -288.2)"/></g></g><g id="conversation"><path id="c-2" data-name="c" class="cls-1" d="M325.5,316.1h11c.1-5.5-3-26-11.1-26H308.9c-8.5,0-11,21-11,26v17.3c0,6,2.7,25.9,11,25.9h16.6c8,0,11-25.9,11-25.9h-11c0,10.9-16.6,10.5-16.6,0,0-5,.1-13,.1-17.3C308.9,305.4,325.5,305.5,325.5,316.1Z" transform="translate(-31.8 -288.2)"/><path class="cls-1" d="M380.6,316.1c0-5.5-3-26-11.1-26H353c-8.5,0-11,21-11,26v17.3c0,6,2.7,25.9,11,25.9h16.6c8.8,0,11-19.6,11-25.8ZM353,333.4c0-5,.1-13,0-17.3,0-10.7,16.6-10.6,16.6,0v17.3C369.6,344.3,353,343.9,353,333.4Z" transform="translate(-31.8 -288.2)"/><g id="n-2" data-name="n"><polyline class="cls-1" points="354.3 27.9 354.3 2 365.3 2 365.3 4.7"/><path class="cls-1" d="M386.1,359.3h11V324.7c0-22.2,16.6-22.3,16.6,0v34.6h11V316.1c0-33.8-38.6-33.8-38.6,0Z" transform="translate(-31.8 -288.2)"/></g><path id="v" class="cls-1" d="M457.7,359.3c-.8.2-16.5-20.7-16.5-22.3V290.1h-11V342c0,1.2,12.4,17.3,12.4,17.3h15.1s11.1-15.7,11.1-17.3V290.1h-11v46.7c0,1.3-4,7-7.8,12.3" transform="translate(-31.8 -288.2)"/><path id="e-4" data-name="e" class="cls-1" d="M501.8,316.1H485.3v17.3h27.6V316.1c0-5.9-3.5-26-13.1-26H487.9c-10.9,0-13.6,20.6-13.6,26v17.3c0,6,2.6,25.9,11,25.9h27.6V342H494a8.5,8.5,0,0,1-8.7-8.6V316.1C485.3,305.4,501.8,305.5,501.8,316.1Z" transform="translate(-31.8 -288.2)"/><g id="n-3" data-name="n"><polyline class="cls-1" points="486.5 27.9 486.5 2 497.6 2 497.6 4.7"/><path class="cls-1" d="M518.4,359.3h11V324.7c0-13.6,6.2-18.9,11-15.8V291c-10.5-1.8-22,6.6-22,25.1Z" transform="translate(-31.8 -288.2)"/></g><path id="s-2" data-name="s" class="cls-1" d="M545.9,337.7c0,.2,0,21.6,11.1,21.6h16.5c14.2,0,13.9-43.2,0-43.2h-11c-6.7,0-7-8.7,0-8.7h5.2c5.6,0,5.8,4.4,5.8,4.4h11s-.3-21.7-11-21.6H557c-14.5,0-14,43.3,0,43.3h10.9c7.1,0,7,8.6.1,8.6h-5.2c-6,0-5.8-4.3-5.8-4.3Z" transform="translate(-31.8 -288.2)"/><path id="a-5" data-name="a" class="cls-1" d="M617.5,333.4c0,10.9-16.5,10.5-16.5,0V316.1c0-10.7,16.5-10.6,16.5,0,0,2.6.1,39.1.1,43.2h11V316.1c.1-5.5-3-26-11.1-26H601c-8.6,0-11,21-11,26v17.3c0,6.1,2.6,25.9,11,25.9h16.6" transform="translate(-31.8 -288.2)"/><path class="cls-1" d="M716.8,316.1c0-5.5-3-26-11.1-26H689.2c-8.5,0-11,21-11,26v17.3c0,6,2.7,25.9,11,25.9h16.6c8.8,0,11-19.6,11-25.8Zm-27.6,17.3c0-5,.1-13,0-17.3,0-10.7,16.6-10.6,16.6,0v17.3C705.8,344.3,689.2,343.9,689.2,333.4Z" transform="translate(-31.8 -288.2)"/><g id="n-4" data-name="n"><polyline class="cls-1" points="690.5 27.9 690.5 2 701.5 2 701.5 4.7"/><path class="cls-1" d="M722.3,359.3h11V324.7c0-22.2,16.6-22.3,16.6,0v34.6h11V316.1c0-33.8-38.6-33.8-38.6,0Z" transform="translate(-31.8 -288.2)"/></g><g id="i-2" data-name="i"><rect class="cls-1" x="629.9" y="19.3" width="11" height="51.87"/><ellipse class="cls-3" cx="635.4" cy="9.7" rx="5.2" ry="8.1"/></g><path class="cls-1" d="M656.2,307.4H645.1V290.2h-11v41.3h0v27.9h11V324.7h11.1Z" transform="translate(-31.8 -288.2)"/></g></svg>