<svg id="Layer_1" data-name="Layer 1" xmlns="http://www.w3.org/2000/svg" viewBox="0 0 256 256"><defs><style>.cls-1{fill:#f6c693;}.cls-1,.cls-10,.cls-12,.cls-13,.cls-15,.cls-16,.cls-17,.cls-19,.cls-2,.cls-3,.cls-4,.cls-5,.cls-6,.cls-7{fill-rule:evenodd;}.cls-2{fill:#06abb7;}.cls-3{fill:#1d8c87;}.cls-4{fill:#acdfe8;}.cls-5{fill:#f8e9d4;}.cls-6{fill:#da955c;}.cls-7{fill:#349e57;}.cls-10,.cls-8{fill:#441c0c;}.cls-19,.cls-9{fill:#fff;}.cls-17,.cls-9{stroke:#50bb78;}.cls-11,.cls-12,.cls-13,.cls-14,.cls-16,.cls-17,.cls-9{stroke-miterlimit:10;}.cls-9{stroke-width:3.7px;}.cls-11,.cls-12,.cls-13,.cls-14,.cls-16,.cls-17{fill:none;}.cls-11,.cls-12,.cls-13,.cls-14{stroke:#fff;}.cls-11{stroke-width:12.05px;}.cls-12{stroke-width:9.11px;}.cls-13{stroke-width:6.64px;}.cls-14{stroke-width:6.38px;}.cls-15{fill:#3f965c;}.cls-16{stroke:#3f965c;stroke-width:5.55px;}.cls-17{stroke-width:6.17px;}.cls-18{fill:#50bb78;}</style></defs><title>icon asli</title><polygon class="cls-1" points="91.9 74.4 108.6 64.5 157.6 65.7 180 85.1 185.8 104.7 177.5 151.9 118.5 155.3 84.7 149.1 74.2 123.7 77.2 94.5 91.9 74.4"/><path class="cls-2" d="M84.7,149.1c-3.1,16,27.6,62.3,26.3,80.2,7.3,1.1,36.1,4.6,38.2.1,3-6.2,23.4-71.1,26.2-78C131.1,161.3,87.4,148.1,84.7,149.1Z"/><path class="cls-3" d="M89.6,151.9c5.6,25.6,18.3,62,18.3,62L82.5,157.4v-8.3S89.2,150,89.6,151.9Z"/><path class="cls-4" d="M168.9,154.4c-1.9,12-7.2,38.3-7.2,38.3L173.6,165l3.9-13.1S169.2,152.2,168.9,154.4Z"/><path class="cls-5" d="M158.8,69.2s24.3,26.5,10.1,82.6c3.1-.2,6.4.3,8.6-1.4s6.8-18.2,7.5-22.4c2-10.9-4.9-37.5-7.5-47.8C167,71.8,160,64.7,158.8,69.2Z"/><path class="cls-6" d="M89.7,150.4c-9.2-28.6-7.2-57.3,4.5-74.2V76c-2.4-2.3-12.7,16.7-16.5,17.2a89.5,89.5,0,0,0-1.2,33.1c.5,3.5,2.3,16.4,4,18.6S86.7,148.3,89.7,150.4Z"/><path class="cls-7" d="M84.4,54.8c0,6.3,0,11.6-.1,30.3,28.1-37.8,82.6-19.2,91.7-2.6V57.7c0-4.3-17.2-18.4-32.6-18.4-5.2-.3-5.6-4-.2-4,14.4.3,27.8,8.3,35.3,18.7,4.8-1.7,35.1-15.8,37.2-17.8C213.3,34.5,133.1.8,131.6.6S51,32.9,46.3,36.2c5.5,2.7,12.8,6.6,20.4,10.5.9.5,1.2,3,1.2,4.6.7,3.4-1.5,7.5-2.2,10.1-1.8,8-2.1,10.4-5,21.8H76.5c-2.6-11.3-3.6-14.4-4.7-21.5,1.8-4.4,1.7-8.1-1.3-10.1,0-1.2.8-3.1,1.2-2.8S78.6,51.8,84.4,54.8Z"/><path class="cls-8" d="M75.9,92.3c9.1-.5,18.2-.7,27.3-1.1l13.6-.5,13.7-.3,13.7-.5c4.5-.2,9.1-.2,13.6,0s9.1.5,13.7,1,9.1,1.1,13.6,2v.6a128.5,128.5,0,0,1-13.7,1.8c-4.5.5-9.1.7-13.6.9s-9.1.1-13.7-.1l-13.6-.7-13.7-.5-13.6-.6c-9.1-.4-18.2-.8-27.3-1.4Z"/><circle class="cls-9" cx="109" cy="93.2" r="17.1"/><circle class="cls-9" cx="153.2" cy="93.2" r="17.1"/><circle class="cls-8 eyes" cx="108.6" cy="92.6" r="4.5"/><path class="cls-10 eyes" d="M157.6,92.6a4.5,4.5,0,1,1-4.4-4.4A4.5,4.5,0,0,1,157.6,92.6Z"/><line class="cls-11" x1="130.5" y1="154.4" x2="129.7" y2="233.3"/><path class="cls-12" d="M168.5,186.8c-25-1.4-50-.5-75-.6"/><path class="cls-13" d="M170.1,152.5c-17.7,15.3-35.3,30.8-52.8,46.3l-14.6,13"/><line class="cls-14" x1="92.9" y1="151.4" x2="156.7" y2="212.1"/><path class="cls-15" d="M152.3,225.8H109.8s12.4,26.2,20.7,26.3S152.3,225.8,152.3,225.8Z"/><path class="cls-16" d="M80.5,147.1c22.8,10.6,75,11,97,3.3"/><path class="cls-17" d="M131.7,63.5c-55.1,0-60.5,39.6-56.4,60.5,6.6,34.2,38.8,127.2,54.9,127.2,7,0,15.1-12.5,23-30.2,13.6-30.6,26.8-74.5,31.3-98.3C188.3,102.8,186.9,63.5,131.7,63.5Z"/><circle class="cls-18" cx="68.3" cy="57.9" r="6.6"/><path class="cls-19" d="M153.6,94.5a1.3,1.3,0,1,1-1.3-1.3A1.3,1.3,0,0,1,153.6,94.5Z"/><path class="cls-19" d="M151.7,92.1a.7.7,0,0,1-.7.8.7.7,0,0,1-.8-.8.7.7,0,0,1,.8-.7A.7.7,0,0,1,151.7,92.1Z"/><path class="cls-19" d="M109,94.4a1.3,1.3,0,1,1-1.3-1.3A1.3,1.3,0,0,1,109,94.4Z"/><path class="cls-19" d="M107.2,92.1a.8.8,0,0,1-1.6,0,.8.8,0,0,1,1.6,0Z"/><path class="cls-18" d="M113.2,129a37.4,37.4,0,0,0,2.9,2.5l3.3,2.3a50.6,50.6,0,0,0,7.3,3.8l2,.7,1.9.6a30.6,30.6,0,0,0,4.1,1,38.6,38.6,0,0,0,8.4.7,40.4,40.4,0,0,1-8.5.4,29.9,29.9,0,0,1-4.3-.4l-2.1-.4-2.2-.4a50.1,50.1,0,0,1-8.2-2.9l-3.9-2a41.3,41.3,0,0,1-3.8-2.5Z"/><path class="cls-18" d="M116.6,127.7a11.1,11.1,0,0,0-3.1,1.5,11.8,11.8,0,0,0-2.7,2.3,17.3,17.3,0,0,0-3.6,6.5,17.2,17.2,0,0,1,.8-3.8,16.2,16.2,0,0,1,1.7-3.5,12.6,12.6,0,0,1,2.5-3.2,13.6,13.6,0,0,1,3.4-2.3Z"/><path class="cls-18" d="M116.1,140.5a21.1,21.1,0,0,0,3.7,2.2,15.5,15.5,0,0,0,3.8,1.3l4,.5,4.4.3a9.3,9.3,0,0,1-4.3,1.9,12.4,12.4,0,0,1-4.7,0,9.2,9.2,0,0,1-4.4-2.2A7.4,7.4,0,0,1,116.1,140.5Z"/></svg>